<svg width="1200" height="800" viewBox="0 0 1200 800" fill="none" xmlns="http://www.w3.org/2000/svg">
  <rect width="1200" height="800" rx="40" fill="#F8F2E8"/>
  <rect x="70" y="70" width="1060" height="660" rx="32" fill="#FCF8F0" stroke="#123524" stroke-opacity="0.1" stroke-width="2"/>
  <path d="M390 510V317C390 202 483 118 600 118C717 118 810 202 810 317V510" stroke="#123524" stroke-width="26" stroke-linecap="round" stroke-linejoin="round"/>
  <path d="M463 510V340C463 263 524 201 600 201C676 201 737 263 737 340V510" fill="#123524"/>
  <path d="M520 290L600 472L680 290" stroke="#FCF8F0" stroke-width="22" stroke-linecap="round" stroke-linejoin="round"/>
  <path d="M830 245C877 212 938 213 981 249C944 264 910 295 891 332C848 319 820 286 830 245Z" fill="#D4B26A"/>
  <line x1="318" y1="590" x2="882" y2="590" stroke="#123524" stroke-opacity="0.14" stroke-width="2"/>
  <text x="600" y="655" text-anchor="middle" fill="#123524" font-size="72" font-family="Cormorant Garamond, Georgia, serif" letter-spacing="10">MILLA HOMES</text>
  <text x="600" y="698" text-anchor="middle" fill="#123524" fill-opacity="0.72" font-size="24" font-family="Lato, Arial, sans-serif" letter-spacing="6">MEDITERRANEAN ARCH CONCEPT</text>
</svg>
